<?xml version="1.0" encoding="utf-8"?>
<!-- Generator: Adobe Illustrator 24.0.0, SVG Export Plug-In . SVG Version: 6.00 Build 0)  -->
<svg version="1.1" id="Layer_1" xmlns="http://www.w3.org/2000/svg" xmlns:xlink="http://www.w3.org/1999/xlink" x="0px" y="0px"
	 viewBox="0 0 150 150" style="enable-background:new 0 0 150 150;" xml:space="preserve">
<style type="text/css">
	.st0{fill:#FF0077;}
	.st1{fill:none;stroke:#FF0077;stroke-width:2;stroke-miterlimit:10;}
</style>
<g>
	<path class="st0" d="M108,35c5.51,0,10,4.49,10,10v60c0,5.51-4.49,10-10,10H48c-5.51,0-10-4.49-10-10V45c0-5.51,4.49-10,10-10H108
		 M108,33H48c-6.6,0-12,5.4-12,12v60c0,6.6,5.4,12,12,12h60c6.6,0,12-5.4,12-12V45C120,38.4,114.6,33,108,33L108,33z"/>
</g>
</svg>
