<?xml version="1.0" encoding="utf-8"?>
<!-- Generator: Adobe Illustrator 24.0.0, SVG Export Plug-In . SVG Version: 6.00 Build 0)  -->
<svg version="1.1" id="Layer_1" xmlns="http://www.w3.org/2000/svg" xmlns:xlink="http://www.w3.org/1999/xlink" x="0px" y="0px"
	 viewBox="0 0 150 150" style="enable-background:new 0 0 150 150;" xml:space="preserve">
<style type="text/css">
	.st0{fill:#FF0077;}
	.st1{fill:none;stroke:#FF0077;stroke-width:2;stroke-miterlimit:10;}
</style>
<g>
	<path class="st1" d="M21,49l10.49,6.93c4.65,3.07,10.69,3.07,15.35,0l2.82-1.86c4.65-3.07,10.69-3.07,15.35,0l2.82,1.86
		c4.65,3.07,10.69,3.07,15.35,0l2.82-1.86c4.65-3.07,10.69-3.07,15.35,0l2.82,1.86c4.65,3.07,10.69,3.07,15.35,0L130,49"/>
</g>
<g>
	<path class="st1" d="M21,73l10.49,6.93c4.65,3.07,10.69,3.07,15.35,0l2.82-1.86c4.65-3.07,10.69-3.07,15.35,0l2.82,1.86
		c4.65,3.07,10.69,3.07,15.35,0l2.82-1.86c4.65-3.07,10.69-3.07,15.35,0l2.82,1.86c4.65,3.07,10.69,3.07,15.35,0L130,73"/>
</g>
<g>
	<path class="st1" d="M21,97l10.49,6.93c4.65,3.07,10.69,3.07,15.35,0l2.82-1.86c4.65-3.07,10.69-3.07,15.35,0l2.82,1.86
		c4.65,3.07,10.69,3.07,15.35,0l2.82-1.86c4.65-3.07,10.69-3.07,15.35,0l2.82,1.86c4.65,3.07,10.69,3.07,15.35,0L130,97"/>
</g>
</svg>
